<svg height="512pt" viewBox="0 0 512 512" width="512pt" xmlns="http://www.w3.org/2000/svg"><path d="m140.191406 170.433594h-109.949218c-16.703126 0-30.242188-13.539063-30.242188-30.242188v-109.949218c0-16.703126 13.539062-30.242188 30.242188-30.242188h109.949218c16.703125 0 30.242188 13.539062 30.242188 30.242188v109.949218c0 16.703125-13.539063 30.242188-30.242188 30.242188zm0 0" fill="#ff6e88"/><path d="m149.085938 1.328125c.246093 1.597656.375 3.234375.375 4.898437v111.207032c0 17.6875-14.339844 32.027344-32.027344 32.027344h-111.207032c-1.664062 0-3.300781-.128907-4.898437-.375 3.800781 12.359374 15.308594 21.347656 28.914063 21.347656h109.949218c16.703125 0 30.242188-13.539063 30.242188-30.242188v-109.953125c0-13.605469-8.988282-25.109375-21.347656-28.910156zm0 0" fill="#e36278"/><path d="m310.621094 170.433594h-109.949219c-16.699219 0-30.238281-13.539063-30.238281-30.242188v-109.949218c0-16.703126 13.539062-30.242188 30.238281-30.242188h109.953125c16.699219 0 30.238281 13.539062 30.238281 30.242188v109.949218c0 16.703125-13.539062 30.242188-30.242187 30.242188zm0 0" fill="#4d9ae8"/><path d="m314.929688.304688c.050781.710937.078124 1.429687.078124 2.15625v110.335937c0 17.550781-14.226562 31.777344-31.777343 31.777344h-110.335938c-.726562 0-1.445312-.027344-2.160156-.078125 2.089844 14.660156 14.699219 25.933594 29.9375 25.933594h109.949219c16.703125 0 30.242187-13.539063 30.242187-30.238282v-109.953125c0-15.238281-11.273437-27.84375-25.933593-29.933593zm0 0" fill="#4181c2"/><path d="m481.054688 170.433594h-109.949219c-16.703125 0-30.242188-13.539063-30.242188-30.242188v-109.949218c0-16.703126 13.539063-30.242188 30.242188-30.242188h109.949219c16.703124 0 30.242187 13.539062 30.242187 30.242188v109.949218c0 16.703125-13.539063 30.242188-30.242187 30.242188zm0 0" fill="#4cb4a4"/><path d="m490.234375 1.417969c.433594 2.082031.664063 4.238281.664063 6.449219v110.378906c0 17.554687-14.234376 31.789062-31.789063 31.789062h-110.378906c-2.210938 0-4.363281-.230468-6.449219-.664062 3.890625 12.214844 15.324219 21.058594 28.824219 21.058594h109.949219c16.703124 0 30.242187-13.539063 30.242187-30.238282v-109.953125c0-13.5-8.847656-24.929687-21.0625-28.820312zm0 0" fill="#41998b"/><path d="m140.191406 341.214844h-109.949218c-16.703126 0-30.242188-13.539063-30.242188-30.238282v-109.953124c0-16.699219 13.539062-30.238282 30.242188-30.238282h109.949218c16.703125 0 30.242188 13.539063 30.242188 30.238282v109.953124c0 16.699219-13.539063 30.238282-30.242188 30.238282zm0 0" fill="#ffb258"/><path d="m149.039062 172.097656c.25 1.617188.386719 3.273438.386719 4.960938v111.140625c0 17.679687-14.332031 32.007812-32.011719 32.007812h-111.140624c-1.6875 0-3.34375-.132812-4.957032-.386719 3.78125 12.386719 15.300782 21.394532 28.921875 21.394532h109.953125c16.699219 0 30.242188-13.539063 30.242188-30.238282v-109.953124c0-13.621094-9.011719-25.140626-21.394532-28.925782zm0 0" fill="#e8a250"/><path d="m310.621094 341.214844h-109.949219c-16.699219 0-30.238281-13.539063-30.238281-30.238282v-109.953124c0-16.699219 13.539062-30.238282 30.238281-30.238282h109.953125c16.699219 0 30.238281 13.539063 30.238281 30.238282v109.953124c0 16.699219-13.539062 30.238282-30.242187 30.238282zm0 0" fill="#475a72"/><path d="m315.359375 171.152344c.023437.511718.039063 1.027344.039063 1.546875v111.0625c0 17.667969-14.320313 31.988281-31.988282 31.988281h-111.0625c-.519531 0-1.035156-.015625-1.546875-.039062 2.273438 14.449218 14.78125 25.503906 29.871094 25.503906h109.953125c16.699219 0 30.238281-13.539063 30.238281-30.238282v-109.953124c0-15.089844-11.054687-27.597657-25.503906-29.871094zm0 0" fill="#364457"/><path d="m481.054688 341.214844h-109.949219c-16.703125 0-30.242188-13.539063-30.242188-30.238282v-109.953124c0-16.699219 13.539063-30.238282 30.242188-30.238282h109.949219c16.703124 0 30.242187 13.539063 30.242187 30.238282v109.953124c0 16.699219-13.539063 30.238282-30.242187 30.238282zm0 0" fill="#ff6e88"/><path d="m490.789062 172.386719c.34375 1.867187.523438 3.792969.523438 5.761719v111.089843c0 17.671875-14.324219 31.996094-31.992188 31.996094h-111.089843c-1.96875 0-3.894531-.183594-5.765625-.527344 4.050781 11.925781 15.34375 20.507813 28.640625 20.507813h109.949219c16.703124 0 30.242187-13.539063 30.242187-30.242188v-109.949218c0-13.292969-8.582031-24.585938-20.507813-28.636719zm0 0" fill="#e36278"/><path d="m140.191406 512h-109.949218c-16.703126 0-30.242188-13.539062-30.242188-30.242188v-109.949218c0-16.699219 13.539062-30.242188 30.242188-30.242188h109.949218c16.703125 0 30.242188 13.539063 30.242188 30.242188v109.953125c0 16.699219-13.539063 30.238281-30.242188 30.238281zm0 0" fill="#ffe675"/><path d="m148.277344 342.660156c.363281 1.917969.554687 3.894532.554687 5.917969v110.109375c0 17.515625-14.195312 31.714844-31.710937 31.714844h-110.109375c-2.023438 0-4-.195313-5.917969-.558594 3.535156 12.777344 15.246094 22.15625 29.148438 22.15625h109.949218c16.703125 0 30.242188-13.539062 30.242188-30.242188v-109.949218c0-13.902344-9.382813-25.609375-22.15625-29.148438zm0 0" fill="#dec866"/><path d="m310.621094 512h-109.949219c-16.699219 0-30.238281-13.539062-30.238281-30.242188v-109.949218c0-16.699219 13.539062-30.242188 30.238281-30.242188h109.953125c16.699219 0 30.238281 13.539063 30.238281 30.242188v109.953125c0 16.699219-13.539062 30.238281-30.242187 30.238281zm0 0" fill="#ff6e88"/><path d="m315.847656 342.019531c.007813.269531.011719.542969.011719.816407v111.925781c0 17.800781-14.433594 32.234375-32.234375 32.234375h-111.925781c-.273438 0-.542969-.003906-.816407-.011719 2.476563 14.210937 14.871094 25.015625 29.789063 25.015625h109.953125c16.699219 0 30.238281-13.539062 30.238281-30.242188v-109.949218c0-14.917969-10.804687-27.316406-25.015625-29.789063zm0 0" fill="#e36278"/><path d="m481.054688 512h-109.949219c-16.703125 0-30.242188-13.539062-30.242188-30.242188v-109.949218c0-16.699219 13.539063-30.242188 30.242188-30.242188h109.949219c16.703124 0 30.242187 13.539063 30.242187 30.242188v109.953125c0 16.699219-13.539063 30.238281-30.242187 30.238281zm0 0" fill="#ffe675"/><path d="m490.210938 342.980469c.4375 2.089843.667968 4.257812.667968 6.476562v110.347657c0 17.550781-14.226562 31.78125-31.777344 31.78125h-110.347656c-2.222656 0-4.386718-.234376-6.480468-.667969 3.882812 12.222656 15.320312 21.082031 28.832031 21.082031h109.949219c16.703124 0 30.242187-13.539062 30.242187-30.242188v-109.949218c0-13.507813-8.859375-24.949219-21.085937-28.828125zm0 0" fill="#dec866"/></svg>